<svg enable-background="new 0 0 512 512" viewBox="0 0 512 512" xmlns="http://www.w3.org/2000/svg"><circle cx="256" cy="256" fill="#4ab8a1" r="256"/><path d="m503.904 320.108c-.144-.368-.268-.74-.44-1.092-.232-.684-.5-1.364-.82-2.04-.236-.696-.508-1.384-.836-2.064-.228-.68-.5-1.36-.82-2.036-.236-.696-.508-1.384-.832-2.064-.232-.684-.504-1.364-.824-2.044-.228-.68-.496-1.352-.816-2.016-.232-.704-.508-1.404-.84-2.088-.236-.684-.504-1.364-.824-2.04-.232-.692-.508-1.38-.832-2.06-.236-.688-.504-1.368-.824-2.04-.232-.696-.508-1.384-.832-2.064-.236-.688-.504-1.368-.824-2.04-.232-.696-.508-1.384-.832-2.064-.236-.684-.504-1.364-.824-2.036-.232-.696-.508-1.388-.832-2.068-.232-.68-.504-1.36-.824-2.04-.232-.688-.504-1.372-.828-2.048-.232-.696-.508-1.384-.832-2.064-.232-.688-.504-1.368-.82-2.04-.236-.696-.512-1.384-.836-2.064-.228-.676-.492-1.344-.812-2.008-.232-.704-.508-1.4-.836-2.084-.236-.688-.508-1.368-.828-2.044-.232-.692-.508-1.38-.828-2.06-.236-.684-.508-1.364-.828-2.04-.232-.688-.5-1.376-.828-2.056-.232-.692-.508-1.38-.828-2.06-.236-.684-.508-1.364-.828-2.036-.232-.696-.508-1.384-.828-2.064-.236-.688-.508-1.368-.828-2.044-.228-.692-.508-1.38-.828-2.06-.236-.684-.508-1.364-.824-2.036-.232-.696-.512-1.384-.832-2.064-.236-.684-.504-1.364-.824-2.04-.232-.688-.504-1.372-.828-2.048-.232-.684-.5-1.364-.82-2.032-.232-.696-.504-1.388-.832-2.072-.236-.692-.508-1.38-.832-2.06-.232-.684-.504-1.364-.824-2.036-.236-.696-.508-1.384-.832-2.064-.232-.684-.504-1.364-.824-2.04-.236-.692-.508-1.38-.832-2.06-.232-.684-.504-1.364-.824-2.036-.232-.692-.504-1.376-.828-2.056-.232-.692-.508-1.38-.832-2.06-.232-.684-.504-1.364-.824-2.036-.232-.696-.508-1.384-.832-2.064-.232-.684-.504-1.364-.824-2.04-.232-.692-.508-1.38-.828-2.06-.236-.684-.508-1.364-.828-2.036-.232-.696-.508-1.384-.828-2.064-.232-.676-.5-1.344-.812-2.008-.236-.704-.508-1.396-.836-2.084-.236-.692-.508-1.38-.836-2.056-.232-.688-.5-1.368-.82-2.044-.236-.692-.508-1.376-.836-2.056-.232-.688-.5-1.368-.82-2.044-.236-.692-.508-1.376-.836-2.056-.228-.688-.5-1.368-.82-2.044-.236-.692-.508-1.38-.836-2.056-.228-.688-.5-1.368-.82-2.04-.236-.692-.504-1.376-.832-2.052-.232-.688-.504-1.372-.828-2.048-.232-.688-.504-1.372-.828-2.048-.232-.688-.504-1.372-.828-2.048-.232-.688-.504-1.372-.828-2.048-.224-.676-.492-1.348-.812-2.016-.232-.7-.508-1.396-.84-2.084-.228-.688-.504-1.372-.828-2.048-.228-.688-.504-1.372-.828-2.048-.228-.688-.504-1.372-.828-2.048-.228-.688-.504-1.372-.828-2.048-.228-.688-.5-1.372-.828-2.048-.228-.688-.5-1.372-.828-2.048-.228-.688-.5-1.372-.828-2.048-.228-.688-.5-1.372-.828-2.048-.228-.688-.5-1.368-.82-2.044-.236-.692-.508-1.376-.836-2.056-.228-.688-.5-1.372-.828-2.048-.228-.688-.5-1.372-.824-2.048-.232-.688-.504-1.372-.828-2.048-.232-.68-.496-1.352-.812-2.02-.232-.7-.508-1.392-.84-2.08-.228-.688-.504-1.372-.828-2.048-.228-.688-.504-1.372-.828-2.048-.228-.688-.5-1.368-.824-2.044-.232-.692-.504-1.376-.832-2.056-.228-.688-.504-1.372-.828-2.048-.228-.688-.504-1.372-.828-2.048-.228-.688-.504-1.372-.828-2.048-.228-.688-.504-1.372-.828-2.048-.228-.688-.5-1.372-.828-2.048-.228-.688-.5-1.372-.828-2.048-.228-.688-.5-1.372-.828-2.048-.228-.688-.5-1.372-.828-2.048-.228-.688-.5-1.368-.82-2.044-.232-.68-.5-1.356-.816-2.024-.232-.7-.512-1.392-.84-2.08-.228-.688-.508-1.372-.828-2.048-.228-.688-.504-1.372-.828-2.048-.228-.688-.504-1.372-.828-2.048-.228-.688-.504-1.372-.828-2.048-.228-.688-.504-1.372-.828-2.048-6.132-18.4-46.392-32.612-95.16-32.612-53.024 0-96 16.788-96 37.5h-.116v23.772c-7.568 5.36-11.884 11.52-11.884 18.076h-.116v41.5c0 2.312.568 4.564 1.588 6.748.224.692.512 1.372.828 2.048.224.688.508 1.372.828 2.048.224.696.512 1.38.828 2.06.224.688.512 1.364.828 2.04.224.696.512 1.38.828 2.06.22.68.504 1.352.816 2.016.228.704.516 1.396.836 2.084.224.688.512 1.364.828 2.04.224.696.512 1.38.828 2.06.224.688.512 1.368.828 2.04.224.696.512 1.38.828 2.06.224.688.512 1.364.828 2.04.128.412.312.808.476 1.216v7.916 1.18c-11.64-1.96-24.464-3.052-37.944-3.052-53.024 0-96 16.788-96 37.5 0 .608.044 1.212.116 1.812v39.688c0 2.304.568 4.556 1.584 6.732.224.688.512 1.368.828 2.044.224.696.508 1.376.828 2.056.224.692.512 1.376.828 2.056.224.688.512 1.368.828 2.044.224.692.512 1.38.828 2.06.224.68.508 1.352.816 2.016.228.704.516 1.396.84 2.084.22.688.508 1.372.824 2.044.224.696.512 1.376.832 2.06.22.688.508 1.368.824 2.044.044.132.092.264.14.408-6.448 5.04-10.12 10.716-10.12 16.732 0 .604.044 1.208.116 1.808v39.692c0 2.36.584 4.656 1.656 6.888.228.684.5 1.368.824 2.04.228.688.504 1.376.828 2.048.232.7.504 1.384.832 2.068.228.684.5 1.364.824 2.036.232.696.504 1.384.832 2.064.224.672.492 1.348.808 2.008.236.708.512 1.404.844 2.088.228.684.5 1.364.824 2.036.228.696.504 1.388.832 2.068.228.684.5 1.364.824 2.036.228.696.504 1.384.832 2.064.228.688.5 1.368.824 2.04.228.692.5 1.376.828 2.052.228.696.504 1.38.832 2.068.228.68.5 1.36.824 2.032.228.7.504 1.388.832 2.068.228.684.5 1.364.824 2.036.228.696.504 1.384.832 2.064.228.688.5 1.368.824 2.04.228.696.504 1.384.832 2.064.224.672.492 1.344.808 2.008.232.704.508 1.392.84 2.08.232.7.504 1.388.832 2.068.228.684.5 1.364.824 2.036.232.696.504 1.384.832 2.064.228.688.5 1.368.824 2.04.232.696.504 1.384.832 2.064.228.688.5 1.368.824 2.04.232.696.504 1.38.832 2.064.228.684.5 1.364.824 2.036.228.692.504 1.38.828 2.052.232.696.504 1.384.832 2.068.228.684.5 1.364.824 2.036.004.016.016.036.02.056 38.94 23.904 84.796 37.752 133.896 37.752 119.244 0 219.444-81.532 247.904-191.892z" fill="#43a691"/><path d="m418.916 385.584c0 20.712-43.1 37-96.116 37-53.024 0-95.88-16.288-95.88-37v-41.5h192v41.5z" fill="#ffc066"/><path d="m419.032 344.084c0 20.712-43.1 38.5-96.116 38.5-53.024 0-95.884-17.788-95.884-38.5 0-20.716 42.976-37.5 96-37.5 53.016 0 96 16.788 96 37.5z" fill="#f2b155"/><path d="m386.916 380.908c-2.588.876-5.252 1.704-8 2.46v24.016c2.82-.828 5.524-1.696 8-2.616z" fill="#f2b155"/><path d="m362.916 387.008c-2.64.476-5.296.92-8 1.312v24.092c2.756-.388 5.42-.804 8-1.28z" fill="#f2b155"/><path d="m330.916 414.42c2.74-.084 5.384-.228 8-.396v-24.024c-2.664.188-5.328.328-8 .42z" fill="#f2b155"/><path d="m290.916 388.308c-2.704-.388-5.368-.836-8-1.32v24.172c2.576.472 5.248.896 8 1.276z" fill="#f2b155"/><path d="m242.916 396.632v-22.524c-2.884-1.524-5.564-3.136-8-4.844v16.312c0 3.472 2.82 7.324 8 11.056z" fill="#f2b155"/><path d="m258.916 404.788c2.476.916 5.172 1.788 8 2.616v-24.084c-2.752-.76-5.416-1.588-8-2.476z" fill="#f2b155"/><path d="m402.916 396.616c5.18-3.74 8-7.584 8-11.04v-16.172c-2.444 1.696-5.124 3.292-8 4.796z" fill="#f2b155"/><path d="m314.916 390.42c-2.672-.092-5.344-.244-8-.424v24.044c2.608.168 5.264.304 8 .392z" fill="#f2b155"/><path d="m410.916 337.728c0 20.712-43.1 37-96.116 37-53.024 0-95.88-16.288-95.88-37v-41.5h192v41.5z" fill="#ffc066"/><path d="m411.032 296.228c0 20.712-43.1 38.5-96.116 38.5-53.024 0-95.884-17.788-95.884-38.5s42.976-37.5 96-37.5c53.016 0 96 16.788 96 37.5z" fill="#f2b155"/><path d="m378.916 333.048c-2.588.876-5.252 1.704-8 2.464v24.016c2.82-.832 5.524-1.696 8-2.612z" fill="#f2b155"/><path d="m354.916 339.148c-2.64.484-5.296.928-8 1.316v24.096c2.756-.388 5.42-.812 8-1.28z" fill="#f2b155"/><path d="m322.916 366.572c2.74-.084 5.384-.228 8-.4v-24.028c-2.664.184-5.328.332-8 .424z" fill="#f2b155"/><path d="m282.916 340.452c-2.704-.392-5.368-.836-8-1.32v24.172c2.576.468 5.248.896 8 1.272z" fill="#f2b155"/><path d="m234.916 348.78v-22.532c-2.884-1.516-5.564-3.132-8-4.844v16.32c0 3.464 2.82 7.316 8 11.056z" fill="#f2b155"/><path d="m250.916 356.928c2.476.92 5.172 1.788 8 2.624v-24.084c-2.752-.768-5.416-1.6-8-2.48z" fill="#f2b155"/><path d="m394.916 348.764c5.18-3.74 8-7.584 8-11.04v-16.172c-2.444 1.688-5.124 3.284-8 4.792z" fill="#f2b155"/><path d="m306.916 342.572c-2.672-.088-5.344-.244-8-.424v24.048c2.608.164 5.264.304 8 .388z" fill="#f2b155"/><path d="m418.916 289.892c0 20.712-43.1 37-96.116 37-53.024 0-95.88-16.288-95.88-37v-41.5h192v41.5z" fill="#ffc066"/><path d="m419.032 248.392c0 20.708-43.1 38.5-96.116 38.5-53.024 0-95.884-17.788-95.884-38.5s42.976-37.5 96-37.5c53.016 0 96 16.788 96 37.5z" fill="#f2b155"/><path d="m386.916 285.212c-2.588.876-5.252 1.704-8 2.464v24.016c2.82-.832 5.524-1.696 8-2.612z" fill="#f2b155"/><path d="m362.916 291.312c-2.64.484-5.296.928-8 1.316v24.096c2.756-.388 5.42-.812 8-1.28z" fill="#f2b155"/><path d="m330.916 318.736c2.74-.084 5.384-.228 8-.4v-24.028c-2.664.184-5.328.332-8 .424z" fill="#f2b155"/><path d="m290.916 292.616c-2.704-.392-5.368-.836-8-1.32v24.172c2.576.468 5.248.896 8 1.272z" fill="#f2b155"/><path d="m242.916 300.944v-22.532c-2.884-1.516-5.564-3.132-8-4.844v16.32c0 3.464 2.82 7.316 8 11.056z" fill="#f2b155"/><path d="m258.916 309.092c2.476.92 5.172 1.788 8 2.624v-24.084c-2.752-.768-5.416-1.6-8-2.48z" fill="#f2b155"/><path d="m402.916 300.928c5.18-3.74 8-7.584 8-11.04v-16.168c-2.444 1.696-5.124 3.288-8 4.796z" fill="#f2b155"/><path d="m314.916 294.736c-2.672-.088-5.344-.244-8-.424v24.048c2.608.164 5.264.304 8 .388z" fill="#f2b155"/><path d="m418.916 242.056c0 20.708-43.1 37-96.116 37-53.024 0-95.88-16.288-95.88-37v-41.5h192v41.5z" fill="#ffc066"/><path d="m419.032 200.556c0 20.712-43.1 38.5-96.116 38.5-53.024 0-95.884-17.788-95.884-38.5s42.976-37.5 96-37.5c53.016 0 96 16.788 96 37.5z" fill="#f2b155"/><path d="m386.916 237.376c-2.588.876-5.252 1.704-8 2.464v24.016c2.82-.832 5.524-1.696 8-2.612z" fill="#f2b155"/><path d="m362.916 243.476c-2.64.484-5.296.928-8 1.316v24.096c2.756-.388 5.42-.812 8-1.28z" fill="#f2b155"/><path d="m330.916 270.9c2.74-.084 5.384-.228 8-.4v-24.028c-2.664.184-5.328.332-8 .424z" fill="#f2b155"/><path d="m290.916 244.78c-2.704-.388-5.368-.836-8-1.32v24.172c2.576.468 5.248.896 8 1.272z" fill="#f2b155"/><path d="m242.916 253.108v-22.528c-2.884-1.516-5.564-3.132-8-4.844v16.32c0 3.46 2.82 7.312 8 11.052z" fill="#f2b155"/><path d="m258.916 261.256c2.476.92 5.172 1.788 8 2.62v-24.08c-2.752-.768-5.416-1.6-8-2.48z" fill="#f2b155"/><path d="m402.916 253.092c5.18-3.736 8-7.58 8-11.04v-16.168c-2.444 1.692-5.124 3.288-8 4.796z" fill="#f2b155"/><path d="m314.916 246.9c-2.672-.092-5.344-.244-8-.428v24.048c2.608.164 5.264.304 8 .388z" fill="#f2b155"/><path d="m406.916 196.208c0 20.712-43.1 37-96.116 37-53.02 0-95.88-16.288-95.88-37v-41.5h192v41.5z" fill="#ffc066"/><path d="m407.032 154.708c0 20.712-43.1 38.5-96.116 38.5-53.024 0-95.884-17.788-95.884-38.5s42.976-37.5 96-37.5c53.016 0 96 16.788 96 37.5z" fill="#ffdc80"/><path d="m391.336 154.708c0 14.084-36.072 26.5-80.42 26.5s-80.188-12.416-80.188-26.5 35.952-25.5 80.304-25.5 80.304 11.416 80.304 25.5z" fill="#f2b255"/><path d="m234.916 158.708c0-14.084 35.952-25.5 80.304-25.5 33.008 0 61.336 6.328 73.68 15.368-8.656-11.116-40.188-19.368-77.868-19.368-44.352 0-80.304 11.416-80.304 25.5 0 3.656 2.452 7.188 6.796 10.428-1.64-2.076-2.608-4.228-2.608-6.428z" fill="#e6a951"/><path d="m374.916 191.528c-2.588.876-5.252 1.7-8 2.464v24.016c2.82-.828 5.524-1.696 8-2.616z" fill="#f2b155"/><path d="m350.916 197.632c-2.64.48-5.296.928-8 1.316v24.096c2.756-.388 5.42-.808 8-1.284z" fill="#f2b155"/><path d="m318.916 225.052c2.74-.084 5.384-.228 8-.396v-24.032c-2.664.188-5.328.328-8 .416z" fill="#f2b155"/><path d="m278.916 198.932c-2.704-.388-5.368-.836-8-1.32v24.172c2.576.472 5.248.896 8 1.276z" fill="#f2b155"/><path d="m230.916 207.256v-22.524c-2.884-1.52-5.564-3.136-8-4.844v16.32c0 3.46 2.82 7.316 8 11.048z" fill="#f2b155"/><path d="m246.916 215.416c2.476.92 5.172 1.788 8 2.616v-24.076c-2.752-.768-5.416-1.596-8-2.48z" fill="#f2b155"/><path d="m390.916 207.244c5.18-3.736 8-7.576 8-11.036v-16.172c-2.444 1.692-5.124 3.292-8 4.8z" fill="#f2b155"/><path d="m302.916 201.048c-2.672-.092-5.344-.24-8-.424v24.044c2.608.168 5.264.304 8 .392z" fill="#f2b155"/><path d="m418.916 154.36c0 20.712-43.1 37-96.116 37-53.024 0-95.88-16.288-95.88-37v-41.5h192v41.5z" fill="#ffc066"/><path d="m419.032 112.86c0 20.712-43.1 38.5-96.116 38.5-53.024 0-95.884-17.788-95.884-38.5s42.976-37.5 96-37.5c53.016 0 96 16.788 96 37.5z" fill="#ffdc80"/><path d="m403.336 112.86c0 14.084-36.072 26.5-80.42 26.5s-80.188-12.416-80.188-26.5 35.952-25.5 80.304-25.5 80.304 11.416 80.304 25.5z" fill="#ffc066"/><path d="m246.916 116.86c0-14.084 35.952-25.5 80.304-25.5 33.008 0 61.336 6.328 73.68 15.368-8.656-11.116-40.188-19.368-77.868-19.368-44.352 0-80.304 11.416-80.304 25.5 0 3.656 2.452 7.188 6.796 10.428-1.64-2.076-2.608-4.228-2.608-6.428z" fill="#f2b155"/><path d="m386.916 149.68c-2.588.876-5.252 1.7-8 2.464v24.016c2.82-.832 5.524-1.696 8-2.616z" fill="#f2b155"/><path d="m362.916 155.784c-2.64.48-5.296.928-8 1.316v24.096c2.756-.384 5.42-.812 8-1.284z" fill="#f2b155"/><path d="m330.916 183.204c2.74-.084 5.384-.228 8-.396v-24.028c-2.664.184-5.328.332-8 .424z" fill="#f2b155"/><path d="m290.916 157.084c-2.704-.388-5.368-.836-8-1.32v24.172c2.576.472 5.248.896 8 1.276z" fill="#f2b155"/><path d="m242.916 165.412v-22.528c-2.884-1.52-5.564-3.136-8-4.844v16.32c0 3.464 2.82 7.312 8 11.052z" fill="#f2b155"/><path d="m258.916 173.564c2.476.924 5.172 1.792 8 2.62v-24.08c-2.752-.768-5.416-1.596-8-2.48z" fill="#f2b155"/><path d="m402.916 165.396c5.18-3.736 8-7.58 8-11.036v-16.172c-2.444 1.692-5.124 3.292-8 4.8z" fill="#f2b155"/><path d="m314.916 159.2c-2.672-.092-5.344-.24-8-.428v24.044c2.608.168 5.264.304 8 .388z" fill="#f2b155"/><path d="m293.084 296.072v-23.768h-.116c0-16.624-27.704-30.716-66.052-35.628v5.388c0 1.172.156 2.328.424 3.468-.184.948-.308 1.904-.308 2.868h-.116v32.944c-5.064 4.568-7.884 9.596-7.884 14.896h-.116v41.5c0 5.336 2.868 10.376 8 14.92v32.928c0 14.64 21.428 27.064 52.716 33.084 8.54-5.532 13.452-12.028 13.452-19.032v-25.944c7.636-5.316 12-11.46 12-18.056v-41.5h-.116c0-6.556-4.32-12.72-11.884-18.068z" fill="#f2b155"/><path d="m93.088 399.64c0 20.712 43.092 37 96.116 37 53.016 0 95.884-16.288 95.884-37v-41.5h-192z" fill="#ffc066"/><path d="m92.968 358.14c0 20.712 43.092 38.5 96.116 38.5 53.016 0 95.884-17.788 95.884-38.5s-42.984-37.5-96-37.5c-53.02 0-96 16.788-96 37.5z" fill="#ffdc80"/><path d="m108.664 358.14c0 14.084 36.072 26.5 80.42 26.5s80.188-12.416 80.188-26.5c0-14.08-35.952-25.5-80.308-25.5-44.348 0-80.3 11.424-80.3 25.5z" fill="#f2b255"/><path d="m265.084 362.14c0-14.08-35.952-25.5-80.304-25.5-33.008 0-61.336 6.328-73.688 15.376 8.664-11.116 40.188-19.376 77.876-19.376 44.352 0 80.304 11.42 80.304 25.5 0 3.656-2.448 7.188-6.804 10.428 1.648-2.076 2.616-4.224 2.616-6.428z" fill="#e6a951"/><path d="m105.088 355.64c0 20.712 43.092 37 96.116 37 53.016 0 95.884-16.288 95.884-37v-41.5h-192z" fill="#ffc066"/><path d="m104.968 314.14c0 20.712 43.092 38.5 96.116 38.5 53.016 0 95.884-17.788 95.884-38.5s-42.984-37.5-96-37.5c-53.02 0-96 16.788-96 37.5z" fill="#f2b155"/><path d="m120.664 314.14c0 14.084 36.072 26.5 80.42 26.5s80.188-12.416 80.188-26.5c0-14.08-35.952-25.5-80.308-25.5-44.348 0-80.3 11.424-80.3 25.5z" fill="#f2b255"/><path d="m277.084 318.14c0-14.08-35.952-25.5-80.304-25.5-33.008 0-61.336 6.328-73.688 15.376 8.664-11.116 40.188-19.376 77.876-19.376 44.352 0 80.304 11.42 80.304 25.5 0 3.656-2.448 7.188-6.804 10.428 1.648-2.076 2.616-4.224 2.616-6.428z" fill="#e6a951"/><g fill="#f2b155"><path d="m125.088 394.968c2.584.876 5.252 1.696 8 2.46v24.016c-2.828-.828-5.532-1.696-8-2.616z"/><path d="m149.088 401.072c2.632.476 5.296.92 8 1.312v24.092c-2.756-.384-5.428-.804-8-1.28z"/><path d="m181.088 428.484c-2.736-.084-5.392-.228-8-.392v-24.032c2.656.188 5.328.328 8 .416z"/><path d="m221.088 402.368c2.704-.384 5.36-.836 8-1.32v24.172c-2.58.476-5.244.9-8 1.28z"/><path d="m269.084 410.696v-22.524c2.884-1.524 5.564-3.14 8-4.844v16.312c0 3.468-2.82 7.32-8 11.056z"/><path d="m253.088 418.852c-2.476.92-5.18 1.788-8 2.616v-24.08c2.744-.764 5.408-1.592 8-2.476z"/><path d="m109.088 410.68c-5.18-3.736-8-7.58-8-11.04v-16.172c2.436 1.696 5.116 3.296 8 4.796z"/><path d="m197.088 404.484c2.672-.092 5.336-.244 8-.428v24.048c-2.616.164-5.264.304-8 .396z"/><path d="m137.088 350.968c2.584.876 5.252 1.696 8 2.46v24.016c-2.828-.828-5.532-1.696-8-2.616z"/><path d="m161.088 357.072c2.632.476 5.296.92 8 1.312v24.092c-2.756-.384-5.428-.804-8-1.28z"/><path d="m193.088 384.484c-2.736-.084-5.392-.228-8-.392v-24.032c2.656.188 5.328.328 8 .416z"/><path d="m233.088 358.368c2.704-.384 5.36-.836 8-1.32v24.172c-2.58.476-5.244.9-8 1.28z"/><path d="m281.084 366.696v-22.524c2.884-1.524 5.564-3.14 8-4.844v16.312c0 3.468-2.82 7.32-8 11.056z"/><path d="m265.084 374.852c-2.476.92-5.18 1.788-8 2.616v-24.08c2.744-.764 5.408-1.592 8-2.476z"/><path d="m121.088 366.68c-5.18-3.736-8-7.58-8-11.04v-16.172c2.436 1.696 5.116 3.296 8 4.796z"/><path d="m209.088 360.484c2.672-.092 5.336-.244 8-.428v24.048c-2.616.164-5.264.304-8 .396z"/></g><path d="m93.088 313.796c0 20.712 43.092 37 96.116 37 53.016 0 95.884-16.288 95.884-37v-41.5h-192z" fill="#ffc066"/><path d="m92.968 272.296c0 20.712 43.092 38.5 96.116 38.5 53.016 0 95.884-17.788 95.884-38.5s-42.984-37.5-96-37.5c-53.02 0-96 16.788-96 37.5z" fill="#ffdc80"/><path d="m108.664 272.296c0 14.084 36.072 26.5 80.42 26.5s80.188-12.416 80.188-26.5-35.952-25.5-80.308-25.5c-44.348 0-80.3 11.416-80.3 25.5z" fill="#ffc066"/><path d="m120.664 272.296c0-13.444 32.764-24.424 74.304-25.404-1.988-.048-3.976-.096-6-.096-44.352 0-80.304 11.416-80.304 25.5s36.072 26.5 80.42 26.5c2.024 0 4.012-.056 6-.104-41.548-1.06-74.42-12.956-74.42-26.396z" fill="#f2b155"/><path d="m125.088 309.116c2.584.876 5.252 1.704 8 2.46v24.016c-2.828-.828-5.532-1.696-8-2.616z" fill="#f2b155"/><path d="m149.088 315.22c2.632.484 5.296.928 8 1.312v24.1c-2.756-.384-5.428-.812-8-1.28z" fill="#f2b155"/><path d="m181.088 342.64c-2.736-.084-5.392-.228-8-.4v-24.036c2.656.192 5.328.336 8 .428z" fill="#f2b155"/><path d="m221.088 316.524c2.704-.392 5.36-.836 8-1.32v24.172c-2.58.468-5.244.892-8 1.272z" fill="#f2b155"/><path d="m269.084 324.852v-22.532c2.884-1.516 5.564-3.132 8-4.844v16.32c0 3.46-2.82 7.312-8 11.056z" fill="#f2b155"/><path d="m253.088 333c-2.476.92-5.18 1.788-8 2.624v-24.084c2.744-.768 5.408-1.596 8-2.48z" fill="#f2b155"/><path d="m109.088 324.836c-5.18-3.736-8-7.58-8-11.04v-16.172c2.436 1.688 5.116 3.288 8 4.796z" fill="#f2b155"/><path d="m197.088 318.64c2.672-.092 5.336-.244 8-.428v24.048c-2.616.164-5.264.304-8 .388z" fill="#f2b155"/></svg>